<?xml version="1.0" encoding="UTF-8"?>
<svg xmlns="http://www.w3.org/2000/svg" xmlns:xlink="http://www.w3.org/1999/xlink" viewBox="0 0 32 32" width="32px" height="32px">
<g id="surface83514044">
<path style=" stroke:none;fill-rule:nonzero;fill:rgb(95.686275%,100%,97.254902%);fill-opacity:1;" d="M 5 5 L 5 27 L 27 27 L 27 5 Z M 7 7 L 25 7 L 25 25 L 7 25 Z M 15.90625 9 C 11.988281 9 9 11.976562 9 15.886719 C 9 19.019531 10.96875 21.699219 13.785156 22.644531 C 14.148438 22.707031 14.277344 22.484375 14.277344 22.300781 C 14.277344 22.125 14.269531 21.160156 14.269531 20.566406 C 14.269531 20.566406 12.28125 20.992188 11.871094 19.722656 C 11.871094 19.722656 11.546875 18.90625 11.089844 18.691406 C 11.089844 18.691406 10.445312 18.246094 11.136719 18.253906 C 11.136719 18.253906 11.832031 18.3125 12.222656 18.984375 C 12.839844 20.082031 13.878906 19.761719 14.285156 19.582031 C 14.347656 19.128906 14.53125 18.8125 14.738281 18.628906 C 13.15625 18.453125 11.5625 18.226562 11.5625 15.511719 C 11.5625 14.734375 11.777344 14.34375 12.230469 13.84375 C 12.15625 13.664062 11.910156 12.902344 12.300781 11.925781 C 12.894531 11.742188 14.253906 12.6875 14.253906 12.6875 C 14.816406 12.535156 15.425781 12.449219 16.027344 12.449219 C 16.628906 12.449219 17.242188 12.535156 17.804688 12.6875 C 17.804688 12.6875 19.160156 11.742188 19.753906 11.925781 C 20.144531 12.910156 19.898438 13.664062 19.824219 13.84375 C 20.277344 14.34375 20.554688 14.734375 20.554688 15.511719 C 20.554688 18.238281 18.890625 18.453125 17.3125 18.628906 C 17.574219 18.851562 17.796875 19.273438 17.796875 19.9375 C 17.796875 20.890625 17.789062 22.074219 17.789062 22.300781 C 17.789062 22.484375 17.917969 22.707031 18.273438 22.640625 C 21.089844 21.699219 23 19.019531 23 15.882812 C 23 11.976562 19.828125 9 15.90625 9 Z M 11.5625 18.484375 C 11.507812 18.46875 11.460938 18.480469 11.445312 18.511719 C 11.425781 18.542969 11.449219 18.589844 11.507812 18.621094 C 11.554688 18.644531 11.609375 18.636719 11.625 18.597656 C 11.640625 18.566406 11.617188 18.515625 11.5625 18.484375 Z M 11.816406 18.722656 C 11.789062 18.714844 11.765625 18.71875 11.746094 18.742188 C 11.703125 18.773438 11.710938 18.835938 11.757812 18.890625 C 11.808594 18.929688 11.871094 18.953125 11.910156 18.914062 C 11.949219 18.882812 11.941406 18.820312 11.894531 18.761719 C 11.871094 18.742188 11.84375 18.730469 11.816406 18.722656 Z M 12.113281 19.089844 C 12.085938 19.078125 12.054688 19.082031 12.03125 19.097656 C 11.980469 19.128906 11.980469 19.203125 12.03125 19.265625 C 12.078125 19.328125 12.148438 19.359375 12.191406 19.328125 C 12.238281 19.296875 12.238281 19.214844 12.191406 19.152344 C 12.167969 19.121094 12.140625 19.101562 12.113281 19.089844 Z M 12.4375 19.484375 C 12.40625 19.480469 12.375 19.492188 12.355469 19.515625 C 12.316406 19.558594 12.332031 19.636719 12.394531 19.691406 C 12.457031 19.753906 12.535156 19.765625 12.574219 19.71875 C 12.617188 19.683594 12.59375 19.597656 12.535156 19.542969 C 12.503906 19.507812 12.46875 19.492188 12.4375 19.488281 Z M 12.984375 19.804688 C 12.910156 19.785156 12.824219 19.808594 12.808594 19.867188 C 12.792969 19.921875 12.847656 19.984375 12.925781 20.003906 C 13 20.035156 13.085938 20 13.101562 19.945312 C 13.125 19.890625 13.070312 19.828125 12.984375 19.800781 Z M 14.054688 19.828125 C 13.972656 19.84375 13.917969 19.898438 13.925781 19.964844 C 13.933594 20.019531 14.011719 20.050781 14.09375 20.035156 C 14.179688 20.015625 14.234375 19.960938 14.21875 19.90625 C 14.210938 19.851562 14.132812 19.820312 14.054688 19.828125 Z M 13.527344 19.890625 C 13.441406 19.890625 13.378906 19.9375 13.378906 19.996094 C 13.378906 20.058594 13.441406 20.105469 13.535156 20.097656 C 13.625 20.097656 13.6875 20.050781 13.6875 19.996094 C 13.6875 19.929688 13.609375 19.882812 13.527344 19.890625 Z M 13.527344 19.890625 "/>
</g>
</svg>
