<?xml version="1.0" encoding="UTF-8"?>
<svg xmlns="http://www.w3.org/2000/svg" xmlns:xlink="http://www.w3.org/1999/xlink" viewBox="0 0 24 24" width="24px" height="24px">
<g id="surface83524215">
<path style=" stroke:none;fill-rule:nonzero;fill:rgb(95.686275%,100%,97.254902%);fill-opacity:1;" d="M 5 3 C 3.898438 3 3 3.898438 3 5 L 3 19 C 3 20.101562 3.898438 21 5 21 L 19 21 C 20.101562 21 21 20.101562 21 19 L 21 5 C 21 3.898438 20.101562 3 19 3 Z M 5 5 L 19 5 L 19 19 L 14.414062 19 L 14.414062 15.035156 L 16.777344 15.035156 L 17.128906 12.308594 L 14.429688 12.308594 L 14.429688 10.574219 C 14.429688 9.785156 14.648438 9.253906 15.777344 9.253906 L 17.207031 9.253906 L 17.207031 6.820312 C 16.511719 6.75 15.8125 6.714844 15.113281 6.71875 C 13.042969 6.71875 11.621094 7.984375 11.621094 10.308594 L 11.621094 12.3125 L 9.277344 12.3125 L 9.277344 15.039062 L 11.621094 15.039062 L 11.621094 19 L 5 19 Z M 5 5 "/>
</g>
</svg>
